# File created by Blade
# Date/Time:  Thu Jan 22 19:01:15 2015
# Frame Rate: 120.000 fps
#------------------------------------------------------
:FULLY-SPECIFIED
:DEGREES
2662
root -3.337785 33.209948 0.149423 8.935876 0.623938 2.721383
RightUpLeg -0.476979 -7.890079 -1.074514
RightLeg -1.234366 -0.000000 0.000000
RightFoot -11.120806 -3.286533 3.326676
RightToeBase 5.267474 -0.000000 -0.000000
LeftUpLeg -2.013763 2.592047 1.947101
LeftLeg 1.321115 -0.000000 -0.000000
LeftFoot -9.931553 0.906939 -10.348640
LeftToeBase 7.265128 -0.000000 -0.000000
Spine -16.016304 2.053329 -2.091724
RightShoulder -7.309557 -29.282643 -8.160696
RightArm 138.620568 -35.818699 -47.426456
RightForeArm -14.593712 -0.000000 114.511384
RightHand 19.989078 -0.000000 -14.703582
RightHandThumb1 -24.326973 -0.000000 -32.862282
LeftShoulder -24.200288 -18.408468 54.899602
LeftArm 104.674117 -48.268634 -80.469576
LeftForeArm -12.410044 0.000000 151.974972
LeftHand 16.429429 -0.000000 10.601299
LeftHandThumb1 -26.253704 0.000000 33.147579
Head 15.016666 -2.664323 11.461568
2663
root -3.337047 33.210035 0.150138 8.936730 0.609407 2.718945
RightUpLeg -0.476532 -7.901454 -1.076024
RightLeg -1.240480 -0.000000 0.000000
RightFoot -11.113581 -3.251746 3.327471
RightToeBase 5.257286 -0.000000 -0.000000
LeftUpLeg -2.004956 2.601450 1.946672
LeftLeg 1.308826 -0.000000 -0.000000
LeftFoot -9.937262 0.905750 -10.363470
LeftToeBase 7.335988 -0.000000 -0.000000
Spine -16.013749 2.051851 -2.085578
RightShoulder -7.306063 -29.282375 -8.153696
RightArm 138.618303 -35.828183 -47.426342
RightForeArm -14.601121 0.000000 114.507047
RightHand 19.974785 -0.000000 -14.679221
RightHandThumb1 -24.326973 -0.000000 -32.862282
LeftShoulder -24.195932 -18.402638 54.897584
LeftArm 104.694239 -48.257576 -80.492128
LeftForeArm -12.431486 0.000000 151.980433
LeftHand 16.453586 -0.000000 10.583585
LeftHandThumb1 -26.253704 0.000000 33.147579
Head 15.031873 -2.659661 11.464611
2664
root -3.335694 33.210378 0.151211 8.937870 0.598303 2.719419
RightUpLeg -0.472403 -7.917386 -1.080610
RightLeg -1.250982 -0.000000 0.000000
RightFoot -11.108779 -3.223428 3.333486
RightToeBase 5.255875 -0.000000 -0.000000
LeftUpLeg -1.997718 2.605920 1.942759
LeftLeg 1.301836 -0.000000 -0.000000
LeftFoot -9.924392 0.914505 -10.345369
LeftToeBase 7.278426 -0.000000 -0.000000
Spine -16.015667 2.048198 -2.079438
RightShoulder -7.303541 -29.295460 -8.142827
RightArm 138.603319 -35.846689 -47.417446
RightForeArm -14.606188 -0.000000 114.493228
RightHand 19.977872 -0.000000 -14.697672
RightHandThumb1 -24.326973 -0.000000 -32.862282
LeftShoulder -24.185569 -18.386874 54.893865
LeftArm 104.701785 -48.258759 -80.499992
LeftForeArm -12.428310 -0.000000 151.989201
LeftHand 16.394336 -0.000000 10.663551
LeftHandThumb1 -26.253704 0.000000 33.147579
Head 15.060422 -2.647845 11.464224
2665
root -3.333530 33.209943 0.152151 8.939386 0.586989 2.720342
RightUpLeg -0.471616 -7.916187 -1.085549
RightLeg -1.257593 -0.000000 0.000000
RightFoot -11.112333 -3.215432 3.337748
RightToeBase 5.314416 -0.000000 -0.000000
LeftUpLeg -1.986317 2.602419 1.937456
LeftLeg 1.283529 -0.000000 -0.000000
LeftFoot -9.924597 0.914443 -10.369430
LeftToeBase 7.313754 -0.000000 -0.000000
Spine -16.013613 2.047996 -2.067194
RightShoulder -7.308940 -29.310503 -8.134002
RightArm 138.566214 -35.865111 -47.380963
RightForeArm -14.501467 -0.000000 114.493557
RightHand 19.974314 -0.000000 -14.545994
RightHandThumb1 -24.326973 -0.000000 -32.862282
LeftShoulder -24.176128 -18.373947 54.886398
LeftArm 104.717681 -48.271072 -80.524368
LeftForeArm -12.402025 0.000000 151.987716
LeftHand 16.397135 -0.000000 10.679319
LeftHandThumb1 -26.253704 0.000000 33.147579
Head 15.073166 -2.628420 11.451172
2666
root -3.332159 33.209794 0.152906 8.943808 0.574406 2.720086
RightUpLeg -0.474073 -7.917923 -1.089645
RightLeg -1.261777 -0.000000 0.000000
RightFoot -11.109094 -3.199093 3.343643
RightToeBase 5.308236 -0.000000 -0.000000
LeftUpLeg -1.981754 2.576966 1.941074
LeftLeg 1.290897 -0.000000 -0.000000
LeftFoot -9.938503 0.928807 -10.319481
LeftToeBase 7.258993 -0.000000 -0.000000
Spine -16.012267 2.029225 -2.052427
RightShoulder -7.298842 -29.323879 -8.126429
RightArm 138.550857 -35.873622 -47.378791
RightForeArm -14.529080 0.000000 114.476898
RightHand 19.970597 -0.000000 -14.524282
RightHandThumb1 -24.326973 -0.000000 -32.862282
LeftShoulder -24.177645 -18.323857 54.875043
LeftArm 104.779462 -48.288274 -80.575544
LeftForeArm -12.417086 0.000000 151.981700
LeftHand 16.375124 -0.000000 10.649465
LeftHandThumb1 -26.253704 0.000000 33.147579
Head 15.080588 -2.604400 11.458737
2667
root -3.331405 33.209751 0.153413 8.948594 0.561459 2.718711
RightUpLeg -0.475042 -7.927959 -1.091753
RightLeg -1.271854 -0.000000 0.000000
RightFoot -11.106578 -3.170446 3.352128
RightToeBase 5.309070 -0.000000 -0.000000
LeftUpLeg -1.978218 2.630059 1.930836
LeftLeg 1.260794 -0.000000 -0.000000
LeftFoot -9.925141 0.919600 -10.360597
LeftToeBase 7.292701 -0.000000 -0.000000
Spine -16.010282 2.032199 -2.045675
RightShoulder -7.310947 -29.344691 -8.107435
RightArm 138.591298 -35.873514 -47.421143
RightForeArm -14.713931 -0.000000 114.442910
RightHand 19.936358 -0.000000 -14.767210
RightHandThumb1 -24.326973 -0.000000 -32.862282
LeftShoulder -24.172195 -18.312441 54.877051
LeftArm 104.785677 -48.304319 -80.582683
LeftForeArm -12.420007 -0.000000 151.982446
LeftHand 16.367917 -0.000000 10.662722
LeftHandThumb1 -26.253704 0.000000 33.147579
Head 15.086404 -2.582182 11.449405
